<svg width="25" height="24" viewBox="0 0 25 24" fill="none" xmlns="http://www.w3.org/2000/svg">
<path fill-rule="evenodd" clip-rule="evenodd" d="M19.6646 10.8523L18.3925 11.9962L10.2951 0C7.05155 3.72719 0 12.3518 0 18.032C0 21.3509 1.73695 23.2493 4.829 23.9323C3.32448 22.6849 2.90321 20.8881 2.90321 19.4092C2.90321 14.6849 7.99369 8.80715 10.2951 6.32738L16.2053 15.0574C16.8112 14.3669 17.5811 13.5428 18.1456 12.8335L19.6646 10.8523ZM19.2081 15.031C19.4094 14.715 19.7414 14.1825 19.9365 13.8608L24.9979 21.334H20.7355L17.99 17.2926L16.6597 18.6096C17.0665 18.1054 17.4296 17.5014 17.8073 16.9784" fill="#2E88DC"/>
<path fill-rule="evenodd" clip-rule="evenodd" d="M11.7149 9.55593C9.51516 11.9905 6.39198 16.6039 6.39198 19.2154C6.39198 20.173 6.93153 21.332 8.37173 21.332C10.8371 21.332 16.8718 16.5192 24.0291 5.33203C17.5275 19.7271 10.6877 23.9981 7.0602 23.9981C4.84803 23.9981 3.71289 21.5578 3.71289 19.3904C3.71289 15.7384 7.42336 10.444 10.2954 7.45056L11.7149 9.55593Z" fill="#2E88DC"/>
</svg>
